<svg width="887" height="890" viewBox="0 0 887 890" fill="none" xmlns="http://www.w3.org/2000/svg">
<g clip-path="url(#clip0)">
<path d="M128.788 746.422V889.966H200.318L228.93 861.257H658.104L686.716 889.966H758.246V746.422L755.099 732.067L711.037 532.973C707.748 517.899 698.734 505.412 686.574 497.372C686.432 497.372 686.289 497.23 686.289 497.23C677.133 491.485 666.549 488.043 655.099 488.043H231.935C220.491 488.043 209.901 491.485 200.751 497.23C200.751 497.23 200.602 497.372 200.46 497.372C188.299 505.412 179.292 517.899 175.996 532.973L148.102 659.29L141.524 688.862L131.935 732.067L128.788 746.422Z" fill="#FD808F"/>
<path d="M214.624 229.67C183.021 229.67 157.4 255.378 157.4 287.088V430.632C157.4 462.342 183.021 488.043 214.624 488.043H343.378L443.52 559.815L543.656 488.043H672.41C704.013 488.043 729.634 462.342 729.634 430.632V287.088C729.634 255.378 704.013 229.67 672.41 229.67V172.253L729.634 114.835L615.186 0L543.656 71.772H343.378L271.848 0L157.4 114.835L214.624 172.253V229.67Z" fill="#FEA9AE"/>
<path d="M515.044 200.962C515.044 224.741 534.263 244.025 557.962 244.025C581.667 244.025 600.88 224.741 600.88 200.962C600.88 177.176 581.667 157.898 557.962 157.898C534.263 157.898 515.044 177.176 515.044 200.962Z" fill="white"/>
<path d="M529.35 215.316C529.35 231.171 542.16 244.025 557.962 244.025C573.763 244.025 586.574 231.171 586.574 215.316C586.574 199.461 573.763 186.607 557.962 186.607C542.16 186.607 529.35 199.461 529.35 215.316Z" fill="#493C35"/>
<path d="M557.962 200.962C557.962 208.886 564.37 215.316 572.268 215.316C580.172 215.316 586.574 208.886 586.574 200.962C586.574 193.031 580.172 186.607 572.268 186.607C564.37 186.607 557.962 193.031 557.962 200.962Z" fill="white"/>
<path d="M543.656 236.847C543.656 240.806 546.864 244.025 550.809 244.025C554.761 244.025 557.962 240.806 557.962 236.847C557.962 232.882 554.761 229.67 550.809 229.67C546.864 229.67 543.656 232.882 543.656 236.847Z" fill="white"/>
<path d="M286.154 200.962C286.154 224.741 305.366 244.025 329.072 244.025C352.771 244.025 371.99 224.741 371.99 200.962C371.99 177.176 352.771 157.898 329.072 157.898C305.366 157.898 286.154 177.176 286.154 200.962Z" fill="white"/>
<path d="M300.461 215.316C300.461 231.171 313.271 244.025 329.073 244.025C344.874 244.025 357.685 231.171 357.685 215.316C357.685 199.461 344.874 186.607 329.073 186.607C313.271 186.607 300.461 199.461 300.461 215.316Z" fill="#493C35"/>
<path d="M329.073 200.962C329.073 208.886 335.474 215.316 343.379 215.316C351.276 215.316 357.685 208.886 357.685 200.962C357.685 193.031 351.276 186.607 343.379 186.607C335.474 186.607 329.073 193.031 329.073 200.962Z" fill="white"/>
<path d="M314.766 236.847C314.766 240.806 317.967 244.025 321.919 244.025C325.871 244.025 329.072 240.806 329.072 236.847C329.072 232.882 325.871 229.67 321.919 229.67C317.967 229.67 314.766 232.882 314.766 236.847Z" fill="white"/>
<path d="M0.0339966 746.422L42.952 818.194L0.0339966 889.966H128.788V746.422H0.0339966Z" fill="#FEA9AE"/>
<path d="M386.296 889.966V746.422H243.236V889.966L314.766 861.257L386.296 889.966Z" fill="#FEA9AE"/>
<path d="M643.798 889.966V746.422H500.738V889.966L572.268 861.257L643.798 889.966Z" fill="#FEA9AE"/>
<path d="M4.18254 621.396C9.76553 615.801 18.9216 615.801 24.4979 621.396C34.6555 631.731 51.2489 631.731 61.4066 621.396L65.697 617.234L54.2535 605.894C36.9429 588.382 36.9429 559.959 54.2535 542.454C71.1379 525.512 100.609 525.512 117.487 542.454C134.798 559.965 134.798 588.382 117.487 605.894L106.043 617.234L148.102 659.292L153.252 664.459C158.828 670.061 158.828 679.248 153.252 684.843C150.389 687.573 146.816 689.006 143.094 689.006C142.526 689.006 141.951 689.006 141.517 688.863C138.371 688.578 135.366 687.138 132.937 684.843L85.8702 637.475L81.7219 641.78C60.2629 663.169 25.6415 663.169 4.18254 641.78C-1.39369 636.185 -1.39369 626.998 4.18254 621.396ZM74.5689 585.51L85.8702 596.992L97.1716 585.51C103.465 579.338 103.465 569.003 97.1716 562.831C94.1669 559.816 90.1607 558.098 85.8702 558.098C81.5798 558.098 77.5736 559.816 74.5689 562.831C68.2753 569.003 68.2753 579.338 74.5689 585.51Z" fill="#F57182"/>
<path d="M271.848 0L157.4 114.835L300.46 143.544L271.848 0Z" fill="#FECCD0"/>
<path d="M615.186 0L729.634 114.835L586.574 143.544L615.186 0Z" fill="#FECCD0"/>
<path d="M300.46 430.632H586.574V315.797C586.574 268.232 548.149 229.67 500.738 229.67H386.296C338.891 229.67 300.46 268.225 300.46 315.797V430.632Z" fill="#FECCD0"/>
<path d="M500.738 459.334L443.521 502.397L386.296 459.334V430.632H500.738V459.334Z" fill="#FF5054"/>
<path d="M500.738 373.214C516.539 373.214 529.357 360.361 529.357 344.506V315.797C529.357 299.942 516.546 287.088 500.745 287.088C484.943 287.088 472.133 299.942 472.133 315.797V344.506C472.133 360.361 484.936 373.214 500.738 373.214Z" fill="#F8969F"/>
<path d="M386.296 373.214C402.098 373.214 414.908 360.361 414.908 344.506V315.797C414.908 299.942 402.098 287.088 386.296 287.088C370.495 287.088 357.684 299.942 357.684 315.797V344.506C357.684 360.361 370.495 373.214 386.296 373.214Z" fill="#F8969F"/>
<path d="M193.747 522.985L243.236 746.422H386.296V689.004L443.52 703.359L500.745 689.004V746.422H643.805L693.287 522.985C697.259 505.052 683.664 488.043 665.358 488.043H543.663L443.52 559.815L343.378 488.043H221.682C203.377 488.043 189.782 505.052 193.747 522.985Z" fill="#FE919A"/>
<path d="M758.246 746.422V889.966H887L844.082 818.194L887 746.422H758.246Z" fill="#FEA9AE"/>
<path d="M686.716 746.422C686.716 754.319 693.158 760.776 701.022 760.776H758.246V746.422L755.099 732.067H701.022C693.158 732.067 686.716 738.525 686.716 746.422Z" fill="#F57182"/>
<path d="M200.317 746.422C200.317 754.319 193.882 760.776 186.011 760.776H128.787V746.422L131.934 732.067H186.011C193.882 732.067 200.317 738.525 200.317 746.422Z" fill="#F57182"/>
<path d="M615.186 301.442C615.186 325.222 634.405 344.506 658.104 344.506C681.809 344.506 701.022 325.222 701.022 301.442C701.022 277.656 681.809 258.379 658.104 258.379C634.405 258.379 615.186 277.656 615.186 301.442Z" fill="#FA4C52"/>
<path d="M186.013 301.442C186.013 325.222 205.225 344.506 228.931 344.506C252.63 344.506 271.849 325.222 271.849 301.442C271.849 277.656 252.63 258.379 228.931 258.379C205.225 258.379 186.013 277.656 186.013 301.442Z" fill="#FA4C52"/>
</g>
<defs>
<clipPath id="clip0">
<rect width="887" height="890" fill="white" transform="matrix(-1 0 0 1 887 0)"/>
</clipPath>
</defs>
</svg>
