<svg width="887" height="890" viewBox="0 0 887 890" fill="none" xmlns="http://www.w3.org/2000/svg">
<g clip-path="url(#clip0)">
<path d="M443.766 -3.16724H453.435C513.402 -3.16724 572.976 6.5558 629.862 25.6206L664.978 7.96523C679.158 0.836368 695.571 -0.334755 710.61 4.70379C723.219 8.93209 734.066 17.2661 741.44 28.385L742.476 29.951C752.715 45.3867 755.281 64.7034 749.451 82.2974L730.064 140.779L758.694 198.354L722.338 308.031C699.688 376.365 652.384 433.675 589.769 468.652L558.289 486.239L443.766 529.421L329.242 486.239L297.762 468.652C235.148 433.675 187.843 376.365 165.193 308.031L128.838 198.354L157.467 140.779L138.081 82.2974C132.244 64.7034 134.817 45.3867 145.048 29.951L146.091 28.385C153.458 17.2661 164.313 8.93209 176.921 4.70379C191.96 -0.334755 208.374 0.836368 222.553 7.96523L257.669 25.6206C314.555 6.5558 374.129 -3.16724 434.096 -3.16724L443.766 -3.16724Z" fill="#DDE4E9"/>
<path d="M369.125 223.37L434.713 201.391C440.59 199.417 446.942 199.417 452.819 201.391L518.406 223.37C525.611 225.787 531.563 230.982 534.962 237.805L580.52 329.425C584.549 337.527 584.549 347.066 580.52 355.169L566.205 383.964C561.35 393.714 551.437 399.876 540.596 399.876H501.031C469.402 399.876 443.766 374.098 443.766 342.3C443.766 374.098 418.13 399.876 386.507 399.876H346.943C336.102 399.876 326.188 393.714 321.333 383.964L307.019 355.169C302.99 347.066 302.99 337.527 307.019 329.425L352.576 237.805C355.969 230.976 361.921 225.787 369.125 223.37Z" fill="#6B86A4"/>
<path d="M386.508 399.876L443.766 428.664L501.024 399.876H529.654L486.71 457.451H400.822L357.878 399.876H386.508Z" fill="#6B86A4"/>
<path d="M345.352 169.566C345.352 194.405 325.322 214.546 300.613 214.546C275.911 214.546 255.882 194.405 255.882 169.566C255.882 144.721 275.911 124.58 300.613 124.58C325.322 124.58 345.352 144.721 345.352 169.566Z" fill="white"/>
<path d="M631.65 169.566C631.65 194.405 611.621 214.546 586.919 214.546C562.21 214.546 542.181 194.405 542.181 169.566C542.181 144.721 562.21 124.58 586.919 124.58C611.621 124.58 631.65 144.721 631.65 169.566Z" fill="white"/>
<path d="M128.838 198.354L113.4 268.206C104.705 307.541 104.55 348.299 112.946 387.695C131.892 476.584 192.543 550.712 275.641 586.52L443.766 658.973L611.892 586.52C694.989 550.712 755.64 476.584 774.586 387.695C782.983 348.299 782.827 307.541 774.133 268.206L758.694 198.354L722.339 308.031C699.689 376.365 652.384 433.675 589.77 468.652L558.29 486.239L443.766 529.421L329.249 486.239L297.763 468.652C235.148 433.675 187.844 376.365 165.194 308.031L128.838 198.354Z" fill="#6B86A4"/>
<path d="M611.36 587.238L443.234 659.691L512.735 701.62C558.428 729.189 586.387 778.839 586.387 832.424V890H801.113L815.427 832.424L887 602.115L862.183 394.18C850.51 296.37 803.259 206.364 729.533 141.496L758.162 199.072L773.601 268.924C782.295 308.259 782.451 349.016 774.048 388.412C755.108 477.302 694.458 551.423 611.36 587.238Z" fill="#DDE4E9"/>
<path d="M275.641 586.52L443.766 658.973L374.265 700.902C328.572 728.471 300.613 778.121 300.613 831.706V889.282H85.8876L71.573 831.706L0 601.397L24.8169 393.462C36.4839 295.653 83.7411 205.646 157.467 140.779L128.831 198.354L113.393 268.206C104.705 307.541 104.549 348.299 112.946 387.695C131.892 476.584 192.543 550.705 275.641 586.52Z" fill="#DDE4E9"/>
<path d="M300.613 831.707L338.275 803.307C350.796 793.863 366.607 789.989 382.045 792.569L443.766 802.919L493.63 792.889C507.599 790.077 522.11 792.603 534.326 799.977L586.919 831.707C586.919 778.121 558.96 728.471 513.267 700.902L443.766 658.973L374.265 700.902C328.572 728.471 300.613 778.121 300.613 831.707Z" fill="#3F617E"/>
<path d="M157.468 140.779L138.081 82.2975C132.244 64.7035 134.817 45.3867 145.049 29.9511L146.092 28.385C153.459 17.2662 164.313 8.93216 176.922 4.70386C191.961 -0.334688 208.374 0.836435 222.554 7.9653L257.67 25.6206L157.468 140.779Z" fill="#6B86A4"/>
<path d="M629.863 25.6206L730.065 140.779L749.451 82.2975C755.288 64.7035 752.715 45.3867 742.483 29.9511L741.441 28.385C734.073 17.2662 723.219 8.93216 710.611 4.70386C695.572 -0.334688 679.158 0.836435 664.979 7.9653L629.863 25.6206Z" fill="#6B86A4"/>
<path d="M472.395 327.899L443.766 342.3L415.137 327.899C400.592 327.899 389.92 314.159 393.448 299.976C397.782 282.546 413.349 270.324 431.212 270.324H456.313C474.176 270.324 489.75 282.546 494.077 299.976C497.612 314.159 486.94 327.899 472.395 327.899Z" fill="#3F617E"/>
<path d="M329.242 183.96C329.242 199.859 316.424 212.748 300.613 212.748C284.802 212.748 271.984 199.859 271.984 183.96C271.984 168.062 284.802 155.173 300.613 155.173C316.424 155.173 329.242 168.062 329.242 183.96Z" fill="#3F617E"/>
<path d="M300.613 169.567C300.613 177.512 294.207 183.96 286.299 183.96C278.396 183.96 271.984 177.512 271.984 169.567C271.984 161.614 278.396 155.173 286.299 155.173C294.207 155.173 300.613 161.614 300.613 169.567Z" fill="white"/>
<path d="M314.928 205.551C314.928 209.528 311.725 212.748 307.771 212.748C303.823 212.748 300.613 209.528 300.613 205.551C300.613 201.575 303.823 198.354 307.771 198.354C311.725 198.354 314.928 201.575 314.928 205.551Z" fill="white"/>
<path d="M615.548 183.96C615.548 199.859 602.73 212.748 586.919 212.748C571.101 212.748 558.283 199.859 558.283 183.96C558.283 168.062 571.101 155.173 586.919 155.173C602.73 155.173 615.548 168.062 615.548 183.96Z" fill="#3F617E"/>
<path d="M586.919 169.567C586.919 177.512 580.506 183.96 572.604 183.96C564.695 183.96 558.29 177.512 558.29 169.567C558.29 161.614 564.695 155.173 572.604 155.173C580.506 155.173 586.919 161.614 586.919 169.567Z" fill="white"/>
<path d="M601.233 205.551C601.233 209.528 598.024 212.748 594.076 212.748C590.122 212.748 586.919 209.528 586.919 205.551C586.919 201.575 590.122 198.354 594.076 198.354C598.024 198.354 601.233 201.575 601.233 205.551Z" fill="white"/>
<path d="M658.492 342.3C658.492 366.145 639.262 385.482 615.548 385.482C591.828 385.482 572.604 366.145 572.604 342.3C572.604 318.449 591.828 299.112 615.548 299.112C639.262 299.112 658.492 318.449 658.492 342.3Z" fill="#3F617E"/>
<path d="M314.928 342.3C314.928 366.145 295.704 385.482 271.984 385.482C248.271 385.482 229.041 366.145 229.041 342.3C229.041 318.449 248.271 299.112 271.984 299.112C295.704 299.112 314.928 318.449 314.928 342.3Z" fill="#3F617E"/>
</g>
<defs>
<clipPath id="clip0">
<rect width="887" height="890" fill="white" transform="matrix(-1 0 0 1 887 0)"/>
</clipPath>
</defs>
</svg>
