<svg width="887" height="890" viewBox="0 0 887 890" fill="none" xmlns="http://www.w3.org/2000/svg">
<g clip-path="url(#clip0)">
<path d="M443.608 762.854L542.167 706.346L584.401 748.731L640.719 635.715L668.877 663.969L725.195 635.715L795.594 508.569L823.753 536.823L880.07 409.684L837.829 282.539H880.07L837.829 169.523L781.512 98.8919L795.594 84.7616L739.277 28.2539L626.643 0L528.084 28.2539V0H499.926L443.608 28.2539L387.291 0H359.132V28.2539L260.581 0L147.946 28.2539L91.6289 84.7616L105.705 98.8919L49.3876 169.523L7.14624 282.539H49.3876L7.14624 409.684L63.4635 536.823L91.6289 508.569L162.022 635.715L218.339 663.969L246.498 635.715L302.815 748.731L330.974 706.346L443.608 762.854Z" fill="#FFA400"/>
<path d="M373.215 395.554L415.45 423.808V452.062H471.767V423.808L514.008 395.554L485.85 353.177L443.608 381.431L401.374 353.177L373.215 395.554Z" fill="#7E3F21"/>
<path d="M415.45 296.669L373.215 353.177V395.554L401.374 353.177L443.608 381.43L485.85 353.177L514.008 395.554V353.177L471.767 296.669V254.285H415.45V296.669Z" fill="#F2E6BD"/>
<path d="M443.608 452.062V466.192C443.608 481.728 456.283 494.446 471.767 494.446H531.326C554.835 494.446 575.814 479.895 583.982 457.711L612.56 381.431L514.008 353.177V395.554L471.767 423.808V452.062H443.608Z" fill="#FAC083"/>
<path d="M528.084 296.669L612.567 381.431L668.884 296.669C668.884 242.049 624.755 197.777 570.325 197.777L471.767 254.285V296.669H528.084Z" fill="#D8B85D"/>
<path d="M499.926 98.8919L570.326 141.269L640.719 42.3842L556.243 98.8919H499.926Z" fill="#CD6E25"/>
<path d="M640.719 42.3842L682.96 113.015L668.877 169.523L570.325 141.269L640.719 42.3842Z" fill="#FAC083"/>
<path d="M531.326 494.446H542.167V549.962C553.286 548.129 563.565 543.179 571.875 536.117C582.852 526.652 590.6 513.655 593.131 498.398L612.567 381.43L583.982 457.711C575.814 479.895 554.835 494.446 531.326 494.446Z" fill="#F1E09D"/>
<path d="M274.656 381.43L294.085 498.398C298.592 525.097 319.287 545.44 345.056 549.962V494.446H355.897C332.381 494.446 311.403 479.895 303.241 457.711L274.656 381.43Z" fill="#F1E09D"/>
<path d="M514.008 254.285C514.008 277.69 532.916 296.669 556.243 296.669C579.57 296.669 598.484 277.69 598.484 254.285C598.484 230.879 579.57 211.907 556.243 211.907C532.916 211.907 514.008 230.879 514.008 254.285Z" fill="white"/>
<path d="M274.657 381.431L303.242 457.711C311.403 479.895 332.382 494.446 355.898 494.446H415.45C430.94 494.446 443.608 481.728 443.608 466.192V452.062H415.45V423.808L373.215 395.554V353.17L274.657 381.431Z" fill="#FAC083"/>
<path d="M359.132 296.669L274.657 381.431L218.339 296.669C218.339 242.049 262.462 197.777 316.898 197.777L415.45 254.285V296.669H359.132Z" fill="#D8B85D"/>
<path d="M246.498 42.3842L316.898 141.269L387.291 98.8919H330.974L246.498 42.3842Z" fill="#CD6E25"/>
<path d="M246.498 42.3842L204.263 113.015L218.339 169.523L316.898 141.269L246.498 42.3842Z" fill="#FAC083"/>
<path d="M288.739 254.285C288.739 277.69 307.647 296.669 330.974 296.669C354.301 296.669 373.215 277.69 373.215 254.285C373.215 230.879 354.301 211.907 330.974 211.907C307.647 211.907 288.739 230.879 288.739 254.285Z" fill="white"/>
<path d="M471.767 296.669L514.008 353.177L612.56 381.431L528.084 296.669H471.767Z" fill="#F1E09D"/>
<path d="M415.45 296.669L373.215 353.177L274.657 381.431L359.132 296.669H415.45Z" fill="#F1E09D"/>
<path d="M162.022 296.669L218.339 381.43H274.656L218.339 296.669C218.339 269.257 229.322 244.677 247.202 226.737C265.081 208.797 289.585 197.777 316.898 197.777L415.45 254.285H471.767L570.325 197.777C597.638 197.777 622.136 208.797 640.015 226.737C657.901 244.677 668.884 269.257 668.884 296.669L612.567 381.43H668.884L725.201 296.669L668.884 169.523L570.325 141.269L499.925 98.885H387.291L316.898 141.269L218.339 169.523L162.022 296.669Z" fill="#F1E09D"/>
<path d="M246.498 776.985L218.339 833.492V875.876H387.291V805.238L359.132 720.477L443.608 762.854L514.008 720.477L499.925 805.238V875.876H668.877V833.492L640.719 776.985L668.877 663.969L640.719 635.715L584.401 748.731L542.167 706.347L443.608 762.854L330.974 706.347L302.815 748.731L246.498 635.715L218.339 663.969L246.498 776.985Z" fill="#FAC083"/>
<path d="M697.036 762.854L725.195 791.108L711.119 847.616V875.876H823.753V833.492L809.677 791.108L785.599 760.878L753.353 720.477V663.969L725.195 635.715L668.877 663.969L640.719 776.985L697.036 762.854Z" fill="#F7AF6F"/>
<path d="M514.008 720.477L499.926 805.238L457.691 819.369H429.532L387.291 805.238L359.132 720.477L443.608 762.854L514.008 720.477Z" fill="#F7AF6F"/>
<path d="M697.036 776.985C704.825 776.985 711.119 770.656 711.119 762.854V720.477C711.119 712.675 704.818 706.347 697.036 706.347C689.26 706.347 682.96 712.675 682.96 720.477V762.854C682.96 770.656 689.254 776.985 697.036 776.985Z" fill="#F29D5C"/>
<path d="M387.291 494.446V508.57C387.291 520.296 392.082 530.889 399.682 538.521C407.288 546.146 417.845 550.954 429.532 550.954H457.691C481.058 550.954 499.926 532.023 499.926 508.57V494.446H471.767C456.283 494.446 443.608 481.728 443.608 466.192C443.608 481.728 430.94 494.446 415.45 494.446H387.291Z" fill="#FF5054"/>
<path d="M345.057 522.7V550.954C345.057 582.175 370.258 607.461 401.374 607.461H485.85C516.966 607.461 542.167 582.175 542.167 550.954V522.7C542.167 533.578 538.08 543.464 531.326 550.954C530.899 551.517 530.338 552.081 529.776 552.651C522.17 560.277 511.613 565.077 499.926 565.077V508.57C499.926 532.023 481.059 550.954 457.691 550.954H429.532C417.845 550.954 407.282 546.153 399.682 538.521C392.082 530.889 387.291 520.296 387.291 508.57V565.077C375.604 565.077 365.047 560.277 357.441 552.651C356.879 552.081 356.317 551.517 355.891 550.954C349.137 543.464 345.057 533.578 345.057 522.7Z" fill="#F1E09D"/>
<path d="M499.926 494.446V565.077C511.613 565.077 522.17 560.277 529.776 552.644C530.338 552.081 530.899 551.517 531.326 550.954C538.08 543.464 542.167 533.578 542.167 522.7V494.439H499.926V494.446Z" fill="white"/>
<path d="M345.056 494.446V522.7C345.056 533.578 349.137 543.464 355.898 550.954C356.317 551.517 356.879 552.081 357.447 552.651C365.047 560.277 375.604 565.084 387.291 565.084V494.446H345.056Z" fill="white"/>
<path d="M612.56 890C620.342 890 626.643 883.671 626.643 875.876V861.746C626.643 853.944 620.342 847.623 612.56 847.623C604.778 847.623 598.484 853.944 598.484 861.746V875.876C598.484 883.671 604.778 890 612.56 890Z" fill="#F7AD6B"/>
<path d="M556.243 890C564.025 890 570.325 883.671 570.325 875.876V861.746C570.325 853.944 564.025 847.623 556.243 847.623C548.46 847.623 542.167 853.944 542.167 861.746V875.876C542.167 883.671 548.46 890 556.243 890Z" fill="#F7AD6B"/>
<path d="M330.974 890C338.756 890 345.057 883.671 345.057 875.876V861.746C345.057 853.944 338.756 847.623 330.974 847.623C323.192 847.623 316.898 853.944 316.898 861.746V875.876C316.898 883.671 323.192 890 330.974 890Z" fill="#F7AD6B"/>
<path d="M274.657 890C282.439 890 288.739 883.671 288.739 875.876V861.746C288.739 853.944 282.439 847.623 274.657 847.623C266.874 847.623 260.581 853.944 260.581 861.746V875.876C260.581 883.671 266.874 890 274.657 890Z" fill="#F7AD6B"/>
<path d="M767.436 890C775.218 890 781.512 883.671 781.512 875.876V861.746C781.512 853.944 775.218 847.623 767.436 847.623C759.653 847.623 753.353 853.944 753.353 861.746V875.876C753.353 883.671 759.653 890 767.436 890Z" fill="#F7AD6B"/>
<path d="M753.353 706.347V720.477L785.599 760.878C823.469 752.54 851.912 718.637 851.912 678.093C851.912 670.325 848.812 663.263 843.608 658.177C838.539 652.949 831.495 649.839 823.753 649.839C808.263 649.839 795.594 662.557 795.594 678.1C795.594 685.867 792.495 692.929 787.284 698.015C782.215 703.243 775.178 706.353 767.436 706.353H753.353V706.347Z" fill="#FAC083"/>
<path d="M767.436 593.331V649.839L795.594 678.093C795.594 662.557 808.263 649.839 823.753 649.839C831.495 649.839 838.533 652.949 843.608 658.177C848.812 663.263 851.912 670.325 851.912 678.093L880.07 649.839V593.331L851.912 607.461L823.753 579.208L795.594 607.461L767.436 593.331Z" fill="#7E3F21"/>
<path d="M528.084 268.415C528.084 284.019 540.692 296.669 556.243 296.669C571.794 296.669 584.401 284.019 584.401 268.415C584.401 252.811 571.794 240.161 556.243 240.161C540.692 240.161 528.084 252.811 528.084 268.415Z" fill="#FC4911"/>
<path d="M556.243 254.285C556.243 262.087 562.55 268.415 570.325 268.415C578.101 268.415 584.401 262.087 584.401 254.285C584.401 246.483 578.101 240.161 570.325 240.161C562.55 240.161 556.243 246.483 556.243 254.285Z" fill="white"/>
<path d="M542.167 289.6C542.167 293.505 545.321 296.669 549.205 296.669C553.096 296.669 556.243 293.505 556.243 289.6C556.243 285.703 553.096 282.539 549.205 282.539C545.321 282.539 542.167 285.703 542.167 289.6Z" fill="white"/>
<path d="M302.815 268.415C302.815 284.019 315.423 296.669 330.974 296.669C346.525 296.669 359.132 284.019 359.132 268.415C359.132 252.811 346.525 240.161 330.974 240.161C315.423 240.161 302.815 252.811 302.815 268.415Z" fill="#FC4911"/>
<path d="M330.974 254.285C330.974 262.087 337.281 268.415 345.056 268.415C352.832 268.415 359.132 262.087 359.132 254.285C359.132 246.483 352.832 240.161 345.056 240.161C337.281 240.161 330.974 246.483 330.974 254.285Z" fill="white"/>
<path d="M316.898 289.6C316.898 293.505 320.044 296.669 323.936 296.669C327.82 296.669 330.974 293.505 330.974 289.6C330.974 285.703 327.82 282.539 323.936 282.539C320.044 282.539 316.898 285.703 316.898 289.6Z" fill="white"/>
<path d="M570.312 381.43C571.083 381.43 571.848 381.369 572.633 381.233L741.585 352.979C749.259 351.696 754.443 344.424 753.164 336.724C751.898 329.024 744.657 323.795 736.969 325.113L568.018 353.366C560.344 354.65 555.16 361.929 556.439 369.629C557.576 376.528 563.544 381.43 570.312 381.43Z" fill="#CD6E25"/>
<path d="M570.325 437.938H767.436C775.218 437.938 781.512 431.61 781.512 423.808C781.512 416.013 775.218 409.684 767.436 409.684H570.325C562.543 409.684 556.243 416.013 556.243 423.808C556.243 431.61 562.543 437.938 570.325 437.938Z" fill="#CD6E25"/>
<path d="M739.291 536.822C745.598 536.822 751.337 532.537 752.927 526.127C754.829 518.549 750.234 510.883 742.688 508.989L573.737 466.612C566.198 464.697 558.558 469.321 556.67 476.885C554.775 484.463 559.363 492.136 566.915 494.023L735.867 536.401C737.011 536.693 738.161 536.822 739.291 536.822Z" fill="#CD6E25"/>
<path d="M316.911 381.431C323.679 381.431 329.64 376.535 330.784 369.63C332.063 361.93 326.879 354.651 319.205 353.367L150.254 325.114C142.58 323.803 135.339 329.038 134.06 336.725C132.781 344.425 137.957 351.697 145.632 352.98L314.583 381.234C315.368 381.37 316.14 381.431 316.911 381.431Z" fill="#CD6E25"/>
<path d="M119.787 437.938H316.898C324.68 437.938 330.974 431.61 330.974 423.808C330.974 416.013 324.68 409.684 316.898 409.684H119.787C111.998 409.684 105.705 416.013 105.705 423.808C105.705 431.61 112.005 437.938 119.787 437.938Z" fill="#CD6E25"/>
<path d="M147.933 536.823C149.056 536.823 150.214 536.694 151.35 536.402L320.309 494.024C327.854 492.137 332.449 484.464 330.548 476.886C328.666 469.322 321.047 464.684 313.487 466.612L144.536 508.99C136.984 510.884 132.395 518.55 134.29 526.128C135.887 532.538 141.619 536.823 147.933 536.823Z" fill="#CD6E25"/>
<path d="M570.325 367.3C570.325 390.706 589.233 409.684 612.56 409.684C635.887 409.684 654.801 390.706 654.801 367.3C654.801 343.895 635.887 324.923 612.56 324.923C589.233 324.923 570.325 343.895 570.325 367.3Z" fill="#FA4C52"/>
<path d="M232.422 367.3C232.422 390.706 251.33 409.684 274.657 409.684C297.983 409.684 316.898 390.706 316.898 367.3C316.898 343.895 297.983 324.923 274.657 324.923C251.33 324.923 232.422 343.895 232.422 367.3Z" fill="#FA4C52"/>
</g>
<defs>
<clipPath id="clip0">
<rect width="887" height="890" fill="white" transform="matrix(-1 0 0 1 887 0)"/>
</clipPath>
</defs>
</svg>
