<svg width="455" height="96" viewBox="0 0 455 96" fill="none" xmlns="http://www.w3.org/2000/svg">
<path d="M4 34C2.80702 34 1.82456 34.3743 1.12281 35.1979C0.421053 35.9465 0 36.9947 0 38.2674V57.7326C0 59.0053 0.350877 60.0535 1.12281 60.8021C1.82456 61.5508 2.80702 62 4 62C5.19298 62 6.17544 61.6257 6.87719 60.8021C7.57895 60.0535 8 59.0053 8 57.7326V38.2674C8 36.9947 7.64912 35.9465 6.87719 35.1979C6.17544 34.4492 5.19298 34 4 34Z" fill="#1B2335"/>
<path d="M17 21C15.807 21 14.8246 21.375 14.1228 22.2C13.4211 22.95 13 24 13 25.275V70.725C13 72 13.3509 73.05 14.1228 73.8C14.8246 74.55 15.807 75 17 75C18.193 75 19.1754 74.625 19.8772 73.8C20.5789 73.05 21 72 21 70.725V25.2C21 23.925 20.6491 22.875 19.8772 22.125C19.1754 21.375 18.193 21 17 21Z" fill="#1B2335"/>
<path d="M29.5 9C28.1579 9 27.0526 9.36873 26.2632 10.1799C25.4737 10.9174 25 11.9499 25 13.2035V29.7965C25 31.0501 25.3947 32.0826 26.2632 32.8201C27.0526 33.5575 28.1579 34 29.5 34C30.8421 34 31.9474 33.6313 32.7368 32.8201C33.5263 32.0826 34 31.0501 34 29.7965V13.2035C34 11.9499 33.6053 10.9174 32.7368 10.1799C31.9474 9.44248 30.8421 9 29.5 9Z" fill="#1B2335"/>
<path d="M42 0C40.807 0 39.8246 0.368732 39.1228 1.17994C38.4211 1.9174 38 2.94985 38 4.20354V20.7965C38 22.0501 38.3509 23.0826 39.1228 23.8201C39.8246 24.5575 40.807 25 42 25C43.193 25 44.1754 24.6313 44.8772 23.8201C45.5789 23.0826 46 22.0501 46 20.7965V4.20354C46 2.94985 45.6491 1.9174 44.8772 1.17994C44.1754 0.368732 43.193 0 42 0Z" fill="#1B2335"/>
<path d="M54 0C52.807 0 51.8246 0.368732 51.1228 1.17994C50.4211 1.9174 50 2.94985 50 4.20354V20.7965C50 22.0501 50.3509 23.0826 51.1228 23.8201C51.8246 24.5575 52.807 25 54 25C55.193 25 56.1754 24.6313 56.8772 23.8201C57.5789 23.0826 58 22.0501 58 20.7965V4.20354C58 2.94985 57.6491 1.9174 56.8772 1.17994C56.1053 0.368732 55.193 0 54 0Z" fill="#1B2335"/>
<path d="M42 71C40.807 71 39.8246 71.3687 39.1228 72.1799C38.4211 72.9174 38 73.9499 38 75.2035V91.7965C38 93.0501 38.3509 94.0826 39.1228 94.8201C39.8246 95.5575 40.807 96 42 96C43.193 96 44.1754 95.6313 44.8772 94.8201C45.5789 94.0826 46 93.0501 46 91.7965V75.2035C46 73.9499 45.6491 72.9174 44.8772 72.1799C44.1754 71.3687 43.193 71 42 71Z" fill="#1B2335"/>
<path d="M54 71C52.807 71 51.8246 71.3687 51.1228 72.1799C50.4211 72.9174 50 73.9499 50 75.2035V91.7965C50 93.0501 50.3509 94.0826 51.1228 94.8201C51.8246 95.5575 52.807 96 54 96C55.193 96 56.1754 95.6313 56.8772 94.8201C57.5789 94.0826 58 93.0501 58 91.7965V75.2035C58 73.9499 57.6491 72.9174 56.8772 72.1799C56.1053 71.3687 55.193 71 54 71Z" fill="#1B2335"/>
<path d="M29.5 62C28.1579 62 27.0526 62.3687 26.2632 63.1799C25.4737 63.9174 25 64.9499 25 66.2035V82.7965C25 84.0501 25.3947 85.0826 26.2632 85.8201C27.0526 86.5575 28.1579 87 29.5 87C30.8421 87 31.9474 86.6313 32.7368 85.8201C33.5263 85.0826 34 84.0501 34 82.7965V66.2035C34 64.9499 33.6053 63.9174 32.7368 63.1799C31.9474 62.3687 30.8421 62 29.5 62Z" fill="#1B2335"/>
<path d="M94.8772 35.1979C94.1754 34.4492 93.193 34 92 34C90.807 34 89.8246 34.3743 89.1228 35.1979C88.4211 35.9465 88 36.9947 88 38.2674V57.7326C88 59.0053 88.3509 60.0535 89.1228 60.8021C89.8246 61.5508 90.807 62 92 62C93.193 62 94.1754 61.6257 94.8772 60.8021C95.5789 60.0535 96 59.0053 96 57.7326V38.2674C96 36.9947 95.6491 36.0214 94.8772 35.1979Z" fill="#1B2335"/>
<path d="M79 21C77.807 21 76.8246 21.375 76.1228 22.2C75.4211 22.95 75 24 75 25.275V70.725C75 72 75.3509 73.05 76.1228 73.8C76.8246 74.55 77.807 75 79 75C80.193 75 81.1754 74.625 81.8772 73.8C82.5789 73.05 83 72 83 70.725V25.2C83 23.925 82.6491 22.875 81.8772 22.125C81.1754 21.375 80.193 21 79 21Z" fill="#1B2335"/>
<path d="M66.5 9C65.1579 9 64.0526 9.44248 63.2632 10.1799C62.4737 10.9174 62 11.9499 62 13.2035V29.7965C62 31.0501 62.3947 32.0826 63.2632 32.8201C64.0526 33.5575 65.1579 34 66.5 34C67.8421 34 68.9474 33.6313 69.7368 32.8201C70.5263 32.0826 71 31.0501 71 29.7965V13.2035C71 11.9499 70.6053 10.9174 69.7368 10.1799C68.9474 9.44248 67.8421 9 66.5 9Z" fill="#1B2335"/>
<path d="M66.5 62C65.1579 62 64.0526 62.3687 63.2632 63.1799C62.4737 63.9174 62 64.9499 62 66.2035V82.7965C62 84.0501 62.3947 85.0826 63.2632 85.8201C64.0526 86.5575 65.1579 87 66.5 87C67.8421 87 68.9474 86.6313 69.7368 85.8201C70.5263 85.0826 71 84.0501 71 82.7965V66.2035C71 64.9499 70.6053 63.9174 69.7368 63.1799C68.9474 62.3687 67.8421 62 66.5 62Z" fill="#1B2335"/>
<path d="M160.469 45.5517C162.857 44.3961 164.9 42.629 166.392 40.4284C167.829 38.2856 168.584 35.7548 168.556 33.1715C168.556 29.8383 167.755 26.8869 166.154 24.3172C164.542 21.7408 162.258 19.6564 159.55 18.2898C156.749 16.8412 153.496 16.117 149.792 16.117H130.28C129.718 16.0997 129.158 16.196 128.634 16.3999C128.11 16.6039 127.631 16.9114 127.227 17.3043C126.821 17.7032 126.502 18.1829 126.291 18.7128C126.08 19.2427 125.982 19.8111 126.003 20.3813V75.8936C125.994 76.456 126.098 77.0144 126.309 77.5356C126.519 78.0568 126.832 78.5303 127.228 78.928C127.624 79.3257 128.096 79.6395 128.615 79.8508C129.134 80.0621 129.69 80.1666 130.25 80.158H151.485C155.571 80.158 159.192 79.3242 162.348 77.6567C165.391 76.0974 167.948 73.7288 169.741 70.8095C171.509 67.9144 172.393 64.5792 172.395 60.8041C172.395 56.6512 171.306 53.2889 169.129 50.7172C166.952 48.1455 164.065 46.4237 160.469 45.5517ZM134.495 23.9857H149.771C152.875 23.9857 155.42 24.7371 157.407 26.24C159.394 27.7428 160.388 30.0533 160.388 33.1715C160.388 36.2876 159.394 38.6112 157.407 40.1421C155.42 41.6731 152.875 42.4386 149.771 42.4386H134.495V23.9857ZM162.594 67.1178C161.501 68.8167 159.935 70.1567 158.092 70.9723C156.011 71.8835 153.758 72.3317 151.488 72.2862H134.498V50.3074H151.488C153.747 50.2696 155.991 50.6792 158.092 51.5128C159.892 52.2201 161.454 53.4287 162.594 54.9967C163.681 56.5276 164.225 58.4684 164.227 60.8191C164.227 63.3265 163.683 65.4261 162.594 67.1178Z" fill="#1B2335"/>
<path d="M213.018 37.9653C209.642 35.9702 205.83 34.9727 201.581 34.9727C197.333 34.9727 193.508 35.9702 190.106 37.9653C186.741 39.9224 183.951 42.7379 182.019 46.1264C180.03 49.568 179.035 53.4486 179.035 57.7683C179.035 62.0879 179.948 65.9565 181.773 69.374C183.506 72.6952 186.085 75.4957 189.247 77.4899C192.475 79.4496 196.175 80.4856 199.947 80.4856C203.719 80.4856 207.419 79.4496 210.647 77.4899C212.566 76.2816 214.277 74.7669 215.711 73.0055V76.0704C215.711 77.1798 216.15 78.2438 216.931 79.0283C217.712 79.8127 218.772 80.2535 219.877 80.2535C220.982 80.2535 222.042 79.8127 222.823 79.0283C223.605 78.2438 224.044 77.1798 224.044 76.0704V57.7683C224.044 53.4527 223.05 49.572 221.063 46.1264C219.138 42.7468 216.364 39.9329 213.018 37.9653ZM209.014 71.0948C206.764 72.4123 204.207 73.1065 201.602 73.1065C198.998 73.1065 196.441 72.4123 194.191 71.0948C191.992 69.7641 190.186 67.8673 188.962 65.6009C187.663 63.1977 187.002 60.4992 187.044 57.7652C186.996 55.0057 187.657 52.2803 188.962 49.8513C190.186 47.5848 191.992 45.6881 194.191 44.3573C196.441 43.0399 198.998 42.3457 201.602 42.3457C204.207 42.3457 206.764 43.0399 209.014 44.3573C211.189 45.6926 212.967 47.59 214.162 49.8513C215.441 52.2874 216.088 55.0085 216.041 57.7622C216.082 60.4914 215.436 63.1867 214.162 65.5978C212.967 67.8602 211.189 69.7587 209.014 71.0948Z" fill="#1B2335"/>
<path d="M264.351 37.3114C261.382 35.7041 258.02 34.9004 254.265 34.9004C250.877 34.8497 247.531 35.6682 244.546 37.2782C243.02 38.1116 241.618 39.1543 240.379 40.3763V39.4842C240.364 38.6601 240.111 37.8581 239.65 37.1753C239.19 36.4926 238.543 35.9583 237.787 35.6372C237.031 35.3161 236.198 35.222 235.39 35.3661C234.581 35.5103 233.832 35.8866 233.232 36.4495C232.835 36.8446 232.525 37.3187 232.321 37.8413C232.117 38.364 232.025 38.9236 232.049 39.4842V76.0705C232.064 76.8995 232.32 77.7059 232.785 78.3911C233.25 79.0763 233.904 79.6105 234.667 79.9281C235.43 80.2458 236.268 80.3331 237.08 80.1795C237.891 80.0258 238.64 79.6379 239.235 79.0631C239.615 78.666 239.912 78.1967 240.108 77.6828C240.305 77.1689 240.397 76.6207 240.379 76.0705V52.9314C240.347 51.0133 240.918 49.1339 242.012 47.561C243.146 45.9619 244.664 44.6765 246.425 43.824C248.356 42.8747 250.483 42.3966 252.632 42.4286C254.931 42.3841 257.209 42.8752 259.287 43.8631C261.23 44.828 262.838 46.3568 263.904 48.2511C265.049 50.218 265.62 52.7606 265.618 55.8788V76.0705C265.618 77.1799 266.057 78.2439 266.838 79.0284C267.62 79.8128 268.679 80.2535 269.784 80.2535C270.889 80.2535 271.949 79.8128 272.731 79.0284C273.512 78.2439 273.951 77.1799 273.951 76.0705V55.8788C273.951 51.3401 273.092 47.5127 271.375 44.3966C269.773 41.3969 267.332 38.9338 264.351 37.3114Z" fill="#1B2335"/>
<path d="M299.88 54.7185L314.871 41.2865C315.25 40.9578 315.561 40.5568 315.785 40.1068C316.01 39.6567 316.143 39.1666 316.177 38.6646C316.164 37.6644 315.788 36.7033 315.118 35.9627C314.448 35.2221 313.532 34.7532 312.542 34.6443C312.037 34.6195 311.532 34.7017 311.061 34.8855C310.59 35.0693 310.163 35.3506 309.807 35.7111L289.959 53.492V20.1303C289.974 19.5933 289.881 19.0588 289.687 18.5584C289.492 18.0579 289.2 17.6017 288.827 17.2167C288.453 16.8317 288.007 16.5256 287.514 16.3166C287.021 16.1077 286.492 16 285.957 16C285.421 16 284.892 16.1077 284.399 16.3166C283.906 16.5256 283.46 16.8317 283.087 17.2167C282.713 17.6017 282.421 18.0579 282.226 18.5584C282.032 19.0588 281.939 19.5933 281.954 20.1303V76.1369C281.939 76.6739 282.032 77.2084 282.226 77.7088C282.421 78.2093 282.713 78.6655 283.087 79.0505C283.46 79.4355 283.906 79.7416 284.399 79.9506C284.892 80.1595 285.421 80.2672 285.957 80.2672C286.492 80.2672 287.021 80.1595 287.514 79.9506C288.007 79.7416 288.453 79.4355 288.827 79.0505C289.2 78.6655 289.492 78.2093 289.687 77.7088C289.881 77.2084 289.974 76.6739 289.959 76.1369V63.6089L294.024 59.9654L309.561 79.253C309.877 79.6673 310.277 80.0096 310.734 80.2574C311.192 80.5052 311.696 80.6528 312.214 80.6906C313.267 80.7742 314.31 80.435 315.114 79.7473C316.043 78.9818 316.543 78.0928 316.615 77.0802C316.689 76.0547 316.356 75.0414 315.687 74.2624L299.88 54.7185Z" fill="#1B2335"/>
<path d="M357.283 37.8839C353.907 35.9431 350.041 34.9727 345.687 34.9727C341.284 34.9727 337.391 35.9431 334.007 37.8839C330.669 39.7856 327.915 42.5698 326.043 45.9335C324.108 49.349 323.142 53.2979 323.144 57.7803C323.144 62.2004 324.11 66.1182 326.043 69.5337C327.916 72.8952 330.67 75.6772 334.007 77.5773C337.381 79.5181 341.274 80.4885 345.687 80.4885C350.099 80.4885 353.993 79.5181 357.367 77.5773C360.695 75.6831 363.437 72.9014 365.288 69.5398C367.195 66.1242 368.148 62.2064 368.146 57.7863C368.146 53.304 367.179 49.355 365.246 45.9395C363.375 42.5743 360.62 39.7883 357.283 37.8839ZM358.306 65.7244C357.133 67.9685 355.368 69.8452 353.203 71.1491C350.907 72.4393 348.32 73.1168 345.688 73.1168C343.057 73.1168 340.47 72.4393 338.173 71.1491C336.002 69.8406 334.224 67.966 333.028 65.7244C331.774 63.428 331.147 60.7759 331.149 57.7683C331.151 54.7606 331.778 52.0955 333.028 49.7729C334.217 47.5191 335.996 45.634 338.173 44.3211C340.47 43.0309 343.057 42.3534 345.688 42.3534C348.32 42.3534 350.907 43.0309 353.203 44.3211C355.374 45.6293 357.141 47.5166 358.306 49.7729C359.531 52.0995 360.143 54.7646 360.143 57.7683C360.143 60.7719 359.531 63.424 358.306 65.7244Z" fill="#1B2335"/>
<path d="M405.35 36.4073C403.749 35.3404 401.312 34.808 398.038 34.81C394.895 34.7782 391.798 35.5697 389.053 37.1064C387.269 38.1001 385.666 39.3937 384.317 40.9308V39.3999C384.317 38.0357 383.977 37.011 383.296 36.3259C382.616 35.6408 381.594 35.2992 380.231 35.3012C378.927 35.3012 377.92 35.6569 377.212 36.3681C376.503 37.0793 376.149 38.0899 376.149 39.3999V76.0705C376.149 77.4388 376.503 78.4644 377.212 79.1475C377.92 79.8306 378.927 80.1722 380.231 80.1722C381.594 80.1722 382.616 79.8166 383.296 79.1053C383.977 78.3941 384.317 77.3825 384.317 76.0705V52.1116C384.317 49.5982 385.117 47.5208 386.718 45.8793C388.319 44.2379 390.51 43.1168 393.292 42.516C396.07 41.9133 399.2 41.9685 402.684 42.6818C403.325 42.8435 403.993 42.8712 404.645 42.7632C405.238 42.6585 405.791 42.3879 406.239 41.9826C406.733 41.5137 407.063 40.896 407.178 40.2226C407.56 38.7459 406.951 37.4741 405.35 36.4073Z" fill="#1B2335"/>
<path d="M451.623 46.1264C449.698 42.7461 446.924 39.932 443.578 37.9653C440.202 35.9702 436.391 34.9727 432.144 34.9727C427.898 34.9727 424.069 35.9702 420.659 37.9653C417.295 39.9227 414.505 42.7381 412.573 46.1264C410.585 49.568 409.592 53.4486 409.592 57.7683C409.592 62.0879 410.503 65.9565 412.326 69.374C414.061 72.694 416.64 75.494 419.801 77.4899C423.028 79.4496 426.729 80.4856 430.501 80.4856C434.273 80.4856 437.973 79.4496 441.2 77.4899C443.121 76.2824 444.831 74.7676 446.264 73.0055V76.0704C446.264 77.1798 446.703 78.2438 447.485 79.0283C448.266 79.8127 449.326 80.2535 450.431 80.2535C451.536 80.2535 452.596 79.8127 453.377 79.0283C454.158 78.2438 454.597 77.1798 454.597 76.0704V57.7683C454.603 53.4527 453.612 49.572 451.623 46.1264ZM439.57 71.0948C437.32 72.4114 434.762 73.105 432.158 73.105C429.553 73.105 426.995 72.4114 424.745 71.0948C422.547 69.763 420.743 67.8664 419.519 65.6009C418.217 63.1985 417.556 60.4996 417.598 57.7652C417.55 55.0063 418.212 52.2817 419.519 49.8543C420.743 47.5887 422.547 45.6922 424.745 44.3603C426.995 43.0438 429.553 42.3502 432.158 42.3502C434.762 42.3502 437.32 43.0438 439.57 44.3603C441.747 45.694 443.526 47.5905 444.721 49.8513C446.001 52.2874 446.647 55.0085 446.601 57.7622C446.642 60.4914 445.995 63.1867 444.721 65.5978C443.527 67.8608 441.747 69.7595 439.57 71.0948Z" fill="#1B2335"/>
</svg>
